<?xml version="1.0" encoding="utf-8"?>
<!-- Generator: Adobe Illustrator 26.0.0, SVG Export Plug-In . SVG Version: 6.00 Build 0)  -->
<svg version="1.1" id="Capa_1" xmlns="http://www.w3.org/2000/svg" xmlns:xlink="http://www.w3.org/1999/xlink" x="0px" y="0px"
	 viewBox="0 0 1020 1080" style="enable-background:new 0 0 1020 1080;" xml:space="preserve">
<style type="text/css">
	.st0{fill:none;}
	.st1{fill:#0071BC;}
	.st2{fill:#00FFFF;}
</style>
<g>
	<path class="st0" d="M690,597.6c1.7,0.7,3.4,1.6,5.2,2.5c0.1,0,0.1,0.1,0.2,0.1l226.4-267.3L801,381L690,597.6z"/>
	<polygon class="st0" points="801.2,245.9 803.8,355.1 942,300 877.6,216.2 	"/>
	<polygon class="st0" points="778.2,249.6 464.6,249.6 464.6,360.5 780.9,360.5 	"/>
	<polygon class="st0" points="441.6,245.5 367.5,212.2 301.7,299.9 441.6,355.1 	"/>
	<polygon class="st0" points="773.9,383.5 471.9,383.5 579.6,592.5 666.7,592.5 	"/>
	<polygon class="st0" points="444.8,381.1 321.9,332.6 542.6,592.5 553.7,592.5 	"/>
	<path class="st0" d="M897.5,590.3l-178.1,88.6c-2.8,7.9-7,14.5-12.6,19.8c-12.2,11.4-26.7,12.5-32,12.5c-0.6,0-1,0-1.3,0H492.2v-23
		h182.1l0.2,0c0.9,0,10,0,16.8-6.5c6-5.8,9.1-15.4,9.1-28.6c0-16.1-5.4-26.8-16.4-32.9c-8.2-4.5-16.7-4.7-16.8-4.7H470.9
		c-21.6,0-32.6-7.2-42.4-13.5c-8.2-5.3-14.7-9.6-28.7-10c-38.4-1.3-123.6-0.6-159.5-0.2c0.7,3.8,1,7.8,1,12.2v186.8
		c0.1,1.1,0.3,3.1,0.3,5.7l249.8,59.7c15.9,4,41.8,9.3,49.9,8.6c3-0.2,11.7-2.6,27.1-8.7c5.4-2.1,10.8-4.7,15.8-7.6l349.5-201
		c0,0,11.6-6.8,14.3-19.1c2-9.1-1.1-19.6-9.2-31.2C926.7,579.7,900.5,589.1,897.5,590.3z"/>
	<path class="st1" d="M218.4,792.2l0-0.7V604c0-8.7-1.8-15.1-5.1-18.1c-2.7-2.5-6.3-2.4-7-2.3l-1,0.2l-0.6-0.1h-21.3
		c0,0.8,0,1.6,0,2.5v229.2c0,0.1,0,0.2,0,0.3h24.2c4.2,0,5.9-1.4,7-2.5c4.2-4.7,4.5-15.7,3.9-20.3L218.4,792.2z"/>
	<path class="st1" d="M160.3,816.5l0.1-0.5V586.2c0-8.7-1.9-15.2-5.5-18.7c-3.5-3.4-8.1-3.5-8.9-3.5l-0.6,0.1l-0.2,0H71.8v269.5H147
		c1.1,0,2.2-0.2,3-0.7c10.4-5.3,10.6-13.6,10.5-15.5L160.3,816.5z"/>
	<path class="st2" d="M888.4,569.2l-0.4,0.1l-164.7,81.9c-0.3-15.9-4.8-27.5-10.8-35.9l262.5-309.9l-85.8-111.8l-107.9-65.5H464.9
		l-108.8,60.9l-87.3,116.4l243.6,287.1h-41.5c-14.8,0-21.4-4.3-29.8-9.8c-9.4-6.1-20.1-13-40.4-13.7c-43.9-1.5-147.6-0.4-171.8-0.1
		c-0.2-0.2-0.5-0.4-0.7-0.7c-9.5-8.1-20.4-7.9-24.1-7.6h-26c-2-3.9-4.6-7.3-7.7-10.2c-10.1-9.4-22.3-9.6-25.4-9.4H48.8v315.5H147
		c4.7,0,9.4-1.1,13.5-3.2c7.9-4,13.2-9.2,16.8-14.7h30.4c9.9,0,18.3-3.6,24.2-10.3c2.5-2.8,4.3-5.9,5.7-9.2L486,878.5
		c6.7,1.7,38.3,9.3,54.2,9.3c1.1,0,2,0,3-0.1c2.4-0.2,9.6-0.8,33.7-10.2c6.5-2.5,12.9-5.6,18.9-9.1l349.4-200.9
		c2-1.1,20.4-12.2,25.4-33.8c3.6-15.7-0.7-32.5-12.7-49.7C939.1,557.2,904.2,562.6,888.4,569.2z M579.6,592.5L471.9,383.5h301.9
		L666.7,592.5H579.6z M464.6,249.6h313.7l2.7,110.9H464.6V249.6z M695.3,600.2c-0.1,0-0.1-0.1-0.2-0.1c-1.7-1-3.5-1.8-5.2-2.5
		L801,381l120.8-48.2L695.3,600.2z M942,300l-138.2,55.1l-2.6-109.3l76.5-29.7L942,300z M367.5,212.2l74.1,33.3v109.5l-139.8-55.2
		L367.5,212.2z M321.9,332.6l122.9,48.5l108.9,211.5h-11.2L321.9,332.6z M150,832.8c-0.9,0.4-1.9,0.7-3,0.7H71.8V564h73.4l0.2,0
		l0.6-0.1c0.8,0,5.4,0.1,8.9,3.5c3.6,3.5,5.5,9.9,5.5,18.7V816l-0.1,0.5l0.1,0.9C160.6,819.3,160.4,827.5,150,832.8z M214.6,813.1
		c-1.1,1.2-2.8,2.5-7,2.5h-24.2c0-0.1,0-0.2,0-0.3V586.2c0-0.8,0-1.7,0-2.5h21.3l0.6,0.1l1-0.2c0.7-0.1,4.3-0.1,7,2.3
		c3.3,3,5.1,9.4,5.1,18.1v187.4l0,0.7l0.1,0.7C219,797.4,218.8,808.4,214.6,813.1z M948.2,628.4c-2.7,12.3-14.3,19.1-14.3,19.1
		l-349.5,201c-5.1,2.9-10.4,5.5-15.8,7.6c-15.5,6.1-24.2,8.5-27.1,8.7c-8,0.6-34-4.7-49.9-8.6l-249.8-59.7c0-2.5-0.2-4.5-0.3-5.7
		V604c0-4.4-0.3-8.4-1-12.2c35.9-0.4,121.1-1.1,159.5,0.2c14,0.5,20.4,4.7,28.7,10c9.7,6.3,20.8,13.5,42.4,13.5h196.4
		c0.1,0,8.6,0.2,16.8,4.7c11,6.1,16.4,16.8,16.4,32.9c0,13.2-3.1,22.8-9.1,28.6c-6.8,6.5-15.9,6.5-16.8,6.5l-0.2,0H492.2v23h181.3
		c0.3,0,0.8,0,1.3,0c5.3,0,19.8-1.1,32-12.5c5.6-5.3,9.9-11.9,12.6-19.8l178.1-88.6c3-1.2,29.2-10.6,41.5,6.9
		C947.1,608.8,950.2,619.3,948.2,628.4z"/>
</g>
</svg>
