<?xml version="1.0" encoding="utf-8"?>
<!-- Generator: Adobe Illustrator 26.0.0, SVG Export Plug-In . SVG Version: 6.00 Build 0)  -->
<svg version="1.1" id="Capa_1" xmlns="http://www.w3.org/2000/svg" xmlns:xlink="http://www.w3.org/1999/xlink" x="0px" y="0px"
	 viewBox="0 0 1020 1080" style="enable-background:new 0 0 1020 1080;" xml:space="preserve">
<style type="text/css">
	.st0{fill:#00FFFF;stroke:#00FFFF;stroke-miterlimit:10;}
</style>
<g>
	<polygon class="st0" points="228.3,313.5 278.8,286.1 330,312.2 319.5,255.7 360.1,215 303.2,207.5 277.1,156.3 252.3,208.2 
		195.6,217.2 237.2,256.7 	"/>
	<polygon class="st0" points="454,197.2 504.5,169.8 555.7,195.9 545.2,139.4 585.8,98.7 528.9,91.2 502.8,40 478,91.9 421.3,100.9 
		462.9,140.5 	"/>
	<polygon class="st0" points="676.3,313.5 726.8,286.1 778,312.2 767.5,255.7 808.1,215 751.2,207.5 725.1,156.3 700.3,208.2 
		643.6,217.2 685.2,256.7 	"/>
	<path class="st0" d="M980.1,402.6l-51.5-30.9L898.8,416l-12-7.1l-40.7,71.8V405l0-0.7c-1.4-20.7-18.2-59.8-71.8-59.8
		c-15.4,0-64.3-0.1-127.7-0.3c1.9-4.3,4.4-9.2,6.3-12.8c7.8-14.7,15.8-29.9,8.4-42.2c-7.7-12.7-25.8-12.4-43.3-12.2
		c-8.3,0.1-22.1,0.3-25.1-2.3c-3.3-2.9-5.1-17.5-6.2-26.3c-2.3-18.5-4.6-37.5-19.2-43.2c-14.7-5.8-29.7,6.8-44.1,19
		c-7.2,6.1-18.2,15.4-22.8,15.4c0,0,0,0,0,0c-3.9,0-14.1-8.6-20.2-13.7c-13.2-11.1-26.8-22.6-40.6-17.7c-14,4.9-17.4,22.7-20.8,39.8
		c-1.6,8.4-4.1,21.1-7.2,23.7c-3.4,2.9-17,3.3-25.9,3.6c-17.9,0.6-36.5,1.2-44,14.2c-7.1,12.3,0.9,27.4,8.6,42.1c1.9,3.5,4.2,8,6,12
		c-74.9-0.2-136.6-0.4-160.2-0.4c0-48.2,0-80-0.1-81l-0.3-9.2l-9.2-0.6c-49.3-3.3-82.2,3.7-97.7,20.9c-9.2,10.2-9.3,20.5-9,24.1
		v591.1c0,39.4,34.8,55.2,53.2,58l0.8,0.1l0.8,0c155.9-0.3,498.5-0.9,563.8-1.1l0.5,92.9l9.7,0.5c2.3,0.1,8.8,0.4,17.9,0.4
		c29.1,0,84.2-3.1,107.6-25.3c7.7-7.3,11.8-16.4,11.8-26.4c0-3.6-0.3-7-0.8-10.3h0.8V655.4l116.6-201.7l-10.6-6.2L980.1,402.6z
		 M368.8,321.9c-3.5-6.6-9.9-18.9-9-22.2c2.3-3.2,18.9-3.7,26.9-4c15.3-0.5,29.7-1,38.6-8.5c8.6-7.3,11.2-20.9,14-35.4
		c1.5-7.8,4.4-22.4,7.3-24.3c3.6-0.4,14.8,9,20.7,14c11.3,9.5,22,18.6,33.4,18.6c0,0,0,0,0,0c12.1,0,23.7-9.8,36-20.2
		c6.3-5.3,19.5-16.4,23.3-15.6c3.4,2.2,5.4,18.7,6.4,26.6c2,16.1,3.8,31.2,13.1,39.3c8.9,7.7,23.5,7.5,38.9,7.3
		c7.9-0.1,22.4-0.3,25.4,2.3c0.7,3.7-5.6,15.6-8.9,22c-4.1,7.7-8,15.2-9.9,22.3c-1.1,4.1-1.5,8.2-0.9,12c0.5,2.9,1.6,5.7,3.1,8.5
		c4.3,7.8,12.1,15,20.2,22.5c5.9,5.4,18.1,16.7,17.7,20.6c-0.7,4.2-16.9,11.8-24.6,15.4c-13.6,6.4-26.5,12.4-32.2,22.1
		c-5.4,9.1-4.4,22.3-3.4,36.2c0.5,7.6,1.7,23.3-1,26c-3.2,2.1-18.4-2.5-25.8-4.7c-15.4-4.7-30-9-41-3.2
		c-8.4,4.4-14.4,14.5-20.8,25.1c-3.8,6.3-10.8,18.1-14.2,19c-4.2,0.2-15-14.4-20.2-21.5c-8-10.9-15.5-21.2-24.6-25.6
		c-3.5-1.7-7.3-2.3-11.4-2.3c-8.2,0-17.4,2.7-27,5.5c-7.4,2.2-21.1,6.2-24.2,4.5c-2.4-2.9-0.5-17.5,0.5-25.3
		c1.9-14.2,3.6-27.5-1.8-37c-5.2-9.2-17-14.3-29.5-19.7c-6.8-2.9-19.3-8.4-20.7-11.6c-0.9-4.1,10.6-17,16.1-23.2
		c7.1-8,13.8-15.6,17.5-23.4c1.4-3,2.5-6,2.8-9c0.5-3.7,0-7.5-1.2-11.5C376.6,336.7,372.8,329.4,368.8,321.9z M104.9,286.2
		c6.1-6.2,23.4-16,71-14.1c0.1,69.3,0,494.2,0,565.1c-6.9,0.1-13.5,0-19.9,0c-21.5-0.2-41.3-0.4-55.3,8V296.6l0.2-0.5l-0.3-1
		C100.5,294.1,100.8,290.4,104.9,286.2z M820.3,998.8c-18.3,17.3-72.2,20.1-100.7,19.6l-0.4-73.3c49.3-0.3,82.9,2.9,97.7,17.5
		c6,5.9,8.8,13.8,8.8,24.8C825.6,991.7,823.9,995.4,820.3,998.8z M825.6,943.3c-22-16.4-60-19.4-116.3-18.6
		c-2.7,0-547.5,1-573.6,1.1c-5.1-1-35.1-8.1-35.1-37.6c2-29.8,13.2-30.9,55.1-30.5c9.2,0.1,19.6,0.2,30.8-0.3l9.8-0.4l0-9.8
		c0-43,0.1-327.7,0.1-483.6c23.2,0.1,83,0.2,155.9,0.4c-2.7,3.4-5.8,6.8-8.4,9.8C332.2,387,320,400.7,323.2,415
		c2.9,13.2,18,19.7,32.6,26.1c6.7,2.9,18,7.8,19.9,11c2,3.5,0.4,15.9-0.7,24.2c-1.5,11.5-3.1,23.3-0.4,32.5l-57.9,120.8l28.6-16.3
		c18.7-10.7,40.6-18.6,45.8-16.5c5,2.2,15.2,21.9,21.4,41.5l8.3,26l52.1-119.9c8.5,10.9,17.8,19.9,29.2,19.9c0.3,0,0.6,0,1,0
		c12-0.5,20.1-11.3,27.4-23.2l49.5,118.2l9.2-23.8c6.9-18,17.4-36.5,21.9-38.7c5.1-2.1,27.1,4.3,46.2,13.5l25.2,12.1L626,495.6
		c0-5.1-0.4-10.4-0.8-15.6c-0.6-8.7-1.5-20.7,0.6-24.3c2.5-4.2,14.4-9.8,23.2-13.8c16.6-7.8,33.9-15.8,36.2-30.8
		c2.3-14.5-11.1-26.9-24-38.9c-2.4-2.2-5.2-4.8-7.8-7.4c60.1,0.1,106,0.2,120.8,0.2c45.8,0,50.8,35.2,51.3,40.4V517L707.3,725.8
		l-0.8,1.4l-19.9,96H251.9v20.5h430.5l-2.9,13.8l99.4-85.9l46.7-80.8V943.3z M846.2,614.4l-20.5,35.5l-58.3,100.9L730,727.4
		l95.7-168.8l20.5-36.2l48.2-85.1l40.4,23.7L846.2,614.4z"/>
	<rect x="251.1" y="771.9" class="st0" width="383.6" height="20.5"/>
	<rect x="248.8" y="720.6" class="st0" width="385.9" height="20.5"/>
	<path class="st0" d="M500.8,481.2c52.8,0,95.8-42.2,95.8-94c0-7.8-1-15.4-2.8-22.6c-1.8-7.2-4.5-14.1-7.9-20.5
		c-16-30.2-48.1-50.9-85-50.9c-36.8,0-68.8,20.5-84.8,50.5c-3.4,6.4-6.2,13.3-8,20.5c-1.9,7.4-2.9,15.1-2.9,23.1
		C405,439.1,448,481.2,500.8,481.2z M429.3,364.2c2.5-7.4,6.2-14.3,10.8-20.5c13.7-18.2,35.8-30,60.6-30c25,0,47.1,12,60.8,30.3
		c4.6,6.2,8.3,13.1,10.7,20.5c2.4,7.1,3.7,14.8,3.7,22.7c0,40.5-33.7,73.5-75.2,73.5c-41.5,0-75.2-33-75.2-73.5
		C425.5,379.2,426.9,371.4,429.3,364.2z"/>
	<polygon class="st0" points="549.5,364.5 559.1,355.3 548.3,344 545,340.5 541.3,343.9 519.9,364.4 478.8,403.6 461.5,376.6 
		444.2,387.6 474.9,435.7 	"/>
</g>
</svg>
