<?xml version="1.0" encoding="utf-8"?>
<!-- Generator: Adobe Illustrator 26.0.0, SVG Export Plug-In . SVG Version: 6.00 Build 0)  -->
<svg version="1.1" id="Capa_1" xmlns="http://www.w3.org/2000/svg" xmlns:xlink="http://www.w3.org/1999/xlink" x="0px" y="0px"
	 viewBox="0 0 1020 1080" style="enable-background:new 0 0 1020 1080;" xml:space="preserve">
<style type="text/css">
	.st0{fill:#00FFFF;}
</style>
<g>
	<path class="st0" d="M900.2,313.1c-3.8,0-7.6,0.3-11.3,0.9c-6.4-13-14.9-24.6-25.3-34.8c-32.8-32-74.1-38.4-83.8-38.4
		c-0.1,0-0.2,0-0.3,0H325.7v24h454l0.1,0l0.2,0c5.4-0.1,40.8,5.7,67.6,32.3c7.4,7.3,13.5,15.6,18.4,24.7c-22.6,12.2-38,36.2-38,63.6
		c0,27.1,15,50.8,37.2,63.1c-12.2,21.8-29.8,35.5-45.7,44.1c-16.2,8.7-34.8,13.4-54,13.5l-38,0.3v-3.6c0-11.7-8.3-22-19.8-24.5
		l-31.5-6.8c-0.3-0.1-0.6-0.3-0.7-0.6l-14.5-32c-0.1-0.3-0.1-0.7,0.1-1l15.5-25.8c5.8-9.6,4.4-22-3.3-30.2l-24.2-25.4
		c-8.2-8.6-20.9-10.3-31.1-4.2l-23.1,13.9c-0.3,0.2-0.7,0.2-1,0l-35.7-17c-0.3-0.1-0.5-0.4-0.6-0.8l-5-26.1
		c-2.2-11.5-12.3-20-24-20.3l-34.8-0.8c-12.1-0.3-22.6,8.1-25.1,19.9l-5.7,27.5c-0.1,0.3-0.3,0.6-0.6,0.7l-35.2,18
		c-0.3,0.2-0.7,0.2-1,0l-28.1-15.9c-9.7-5.5-21.6-4-29.6,3.7l-20.5,19.6c-7.2,6.9-9.6,17.4-6.2,26.7l11.6,31.8
		c0.1,0.2,0.1,0.5,0,0.7l-12.4,36.4c-0.1,0.3-0.4,0.6-0.7,0.7l-28.4,8.5c-10.5,3.1-17.9,13-17.9,24v6L243,510
		c-36.6,0-70.5,15.3-93.1,41.9c-7.9,9.3-14.3,19.6-19.4,31.1c-3.2-0.4-6.4-0.7-9.7-0.7c-39.8,0-72.3,32.4-72.3,72.3
		s32.4,72.3,72.3,72.3c4.1,0,8.2-0.4,12.1-1c10.4,20.5,24.4,35.2,37.1,45.5c22.3,18,51,27.9,80.6,27.9h414.7v-24H250.5
		c-24.2,0-47.4-8-65.5-22.6c-12.3-9.9-22.1-21.6-29.3-34.8c22.2-12.3,37.4-36.1,37.4-63.2c0-28-16.1-52.4-39.5-64.4
		c4-8.4,8.8-16,14.6-22.8c18-21.2,45.3-33.4,74.9-33.4l50.5-0.4v3.9c0,11.7,8,21.8,19.4,24.4l27.8,6.4c0.3,0.1,0.6,0.3,0.7,0.6
		l14.7,32.4c0.1,0.3,0.1,0.7,0,1L340,632.1c-5.3,9.8-3.5,22.1,4.5,29.9l22.7,22.2c8.1,7.9,20.6,9.4,30.3,3.6l24.7-14.7
		c0.3-0.2,0.7-0.2,1,0l35.7,17.3c0.3,0.2,0.5,0.4,0.6,0.8l3.6,22.5c2,12.2,12.4,21.1,24.7,21.1H528c11.8,0,22.2-8.4,24.6-20
		l4.8-23.5c0.1-0.3,0.3-0.6,0.6-0.7l35.6-17.4c0.3-0.2,0.7-0.1,1,0.1l21.6,13.8c9.9,6.3,23.1,4.8,31.3-3.5l24.8-25.1
		c8.3-8.4,9.6-21.7,3-31.5L661,605.5c-0.2-0.3-0.2-0.7-0.1-1l14.9-35.7c0.1-0.3,0.4-0.5,0.7-0.6l32.1-8.2
		c11.1-2.8,18.8-12.8,18.8-24.3v-5.2l38.2-0.3c23.1-0.2,45.6-5.8,65.2-16.4c20.2-10.9,42.7-28.6,57.4-57.1c3.9,0.7,7.9,1,12,1
		c39.8,0,72.3-32.4,72.3-72.3S940.1,313.1,900.2,313.1z M169,654.6c0,17.2-9,32.3-22.6,40.9c-6.7,4.2-14.4,6.8-22.8,7.3
		c-1,0.1-1.9,0.1-2.9,0.1c-26.6,0-48.3-21.7-48.3-48.3s21.7-48.3,48.3-48.3c0.6,0,1.1,0,1.7,0c8.4,0.3,16.3,2.7,23.1,6.8
		C159.6,621.6,169,637,169,654.6z M703.4,535.7c0,0.5-0.3,0.9-0.8,1l-32.1,8.2c-7.6,1.9-13.9,7.4-16.9,14.6l-14.9,35.7
		c-3.2,7.8-2.4,16.6,2.3,23.5l14.3,21.5c0.3,0.4,0.2,1-0.1,1.3l-24.8,25.1c-0.4,0.4-0.9,0.4-1.3,0.1l-21.6-13.8
		c-7.3-4.7-16.7-5.2-24.5-1.4l-35.6,17.4c-6.9,3.4-12,9.9-13.6,17.5L529,710c-0.1,0.5-0.5,0.9-1,0.9h-40.1c-0.5,0-1-0.4-1.1-0.9
		l-3.6-22.5c-1.3-8-6.5-15-13.8-18.5l-35.7-17.3c-3.5-1.7-7.2-2.5-11-2.5c-4.4,0-8.9,1.2-12.8,3.5l-24.7,14.7
		c-0.4,0.2-0.9,0.2-1.3-0.2l-22.7-22.2c-0.3-0.3-0.4-0.9-0.2-1.3l16.2-29.8c3.8-6.9,4.1-15.2,0.8-22.4l-14.7-32.4
		c-3.2-7.1-9.6-12.3-17.2-14.1l-27.8-6.4c-0.5-0.1-0.8-0.5-0.8-1v-4.1v-24v-5.8c0-0.5,0.3-0.9,0.8-1l28.4-8.5
		c7.8-2.3,13.9-8.3,16.6-15.9l12.4-36.4c1.8-5.4,1.8-11.3-0.2-16.7L364,393.3c-0.1-0.4,0-0.8,0.3-1.1l20.5-19.6
		c0.3-0.3,0.9-0.4,1.3-0.2l28.1,15.9c7.4,4.2,16.2,4.3,23.8,0.5l35.2-18c6.8-3.5,11.5-9.7,13.1-17.2l5.7-27.5c0.1-0.5,0.5-0.9,1-0.9
		c0,0,0,0,0,0l34.8,0.8c0.5,0,0.9,0.4,1,0.9l5,26.1c1.5,7.8,6.7,14.5,13.8,17.9l35.7,17c7.6,3.6,16.5,3.2,23.7-1.1l23.1-13.9
		c0.4-0.3,1-0.2,1.3,0.2l24.2,25.4c0.3,0.3,0.4,0.9,0.1,1.3l-15.5,25.8c-4.2,7.1-4.7,15.8-1.3,23.3l14.5,32
		c3.3,7.2,9.8,12.5,17.5,14.1l31.5,6.8c0.5,0.1,0.8,0.5,0.8,1v3.8v24V535.7z M900.2,433.7c-0.9,0-1.8,0-2.7-0.1
		c-8.4-0.5-16.3-3.1-23-7.4c-13.6-8.6-22.6-23.7-22.6-40.8c0-17.3,9.2-32.6,22.9-41.1c6.7-4.2,14.6-6.7,23-7.1
		c0.8,0,1.6-0.1,2.4-0.1c26.6,0,48.3,21.7,48.3,48.3C948.5,412,926.8,433.7,900.2,433.7z"/>
	<path class="st0" d="M167,369.3c65.3,0,118.5-53.1,118.5-118.5S232.3,132.3,167,132.3S48.5,185.5,48.5,250.8S101.6,369.3,167,369.3
		z M167,156.3c52.1,0,94.5,42.4,94.5,94.5s-42.4,94.5-94.5,94.5s-94.5-42.4-94.5-94.5S114.9,156.3,167,156.3z"/>
	<path class="st0" d="M821.9,670.7c-65.3,0-118.5,53.1-118.5,118.5s53.1,118.5,118.5,118.5s118.5-53.1,118.5-118.5
		S887.2,670.7,821.9,670.7z M821.9,883.7c-52.1,0-94.5-42.4-94.5-94.5s42.4-94.5,94.5-94.5s94.5,42.4,94.5,94.5
		S874,883.7,821.9,883.7z"/>
	<path class="st0" d="M508.5,417.6c-50.6,0-92.4,40-97.8,91.2c-0.4,3.7-0.6,7.4-0.6,11.2c0,4.3,0.3,8.6,0.8,12.8
		c6.1,50.5,47.5,89.6,97.6,89.6c50.6,0,92.4-39.9,97.8-91.1c0.4-3.7,0.6-7.5,0.6-11.3c0-4.3-0.3-8.5-0.8-12.7
		C600.1,456.8,558.6,417.6,508.5,417.6z M508.5,598.4c-37,0-67.7-28.6-73.4-65.8c-0.6-4.1-1-8.3-1-12.6c0-3.9,0.3-7.7,0.8-11.4
		c5.3-37.8,36.3-67,73.6-67c37,0,67.7,28.6,73.4,65.9c0.6,4.1,1,8.3,1,12.5c0,3.9-0.3,7.7-0.8,11.5
		C576.8,569.3,545.8,598.4,508.5,598.4z"/>
	<polygon class="st0" points="213.6,233.2 196.7,216.2 148.9,264 133.3,248.3 116.3,265.3 148.9,297.9 	"/>
	<polygon class="st0" points="803.8,798.3 788.2,782.7 771.2,799.7 803.8,832.3 868.5,767.5 851.6,750.6 	"/>
</g>
</svg>
