<?xml version="1.0" encoding="utf-8"?>
<!-- Generator: Adobe Illustrator 26.0.0, SVG Export Plug-In . SVG Version: 6.00 Build 0)  -->
<svg version="1.1" id="Capa_1" xmlns="http://www.w3.org/2000/svg" xmlns:xlink="http://www.w3.org/1999/xlink" x="0px" y="0px"
	 viewBox="0 0 1020 1080" style="enable-background:new 0 0 1020 1080;" xml:space="preserve">
<style type="text/css">
	.st0{fill:none;stroke:#00FFFF;stroke-width:8;stroke-miterlimit:10;}
	.st1{fill:#00FFFF;}
</style>
<image style="overflow:visible;" width="325" height="316" xlink:href="772C608E.jpg"  transform="matrix(1 0 0 1 -375 118)">
</image>
<path class="st0" d="M-353.2,255.4c-0.6-1,0.1-2.3,1.3-2.3l22.7,0.1l22.7,0.1c1.2,0,1.9,1.3,1.3,2.3l-11.3,18.6l-11.4,18.8
	c-0.6,1-2,1-2.6,0l-11.3-18.8L-353.2,255.4z"/>
<path class="st0" d="M-329.2,253.2c0,0,5.9-67,75.3-94.5c10.4-4.1,21.5-6.3,32.7-6.6c57.7-1.2,87.6,36.4,95.8,46.4"/>
<path class="st0" d="M-79.3,281.8c0.8,1.3-0.2,3.1-1.7,3.1l-21.7,0l-21.7,0c-1.6,0-2.5-1.7-1.7-3.1l10.8-17.8l11-18
	c0.8-1.3,2.7-1.3,3.4,0l10.9,18.1L-79.3,281.8z"/>
<path class="st0" d="M-102.8,284.8c0,0-5.9,67-75.3,94.5c-10.4,4.1-21.5,6.3-32.7,6.6c-57.7,1.2-87.6-36.4-95.8-46.4"/>
<path class="st0" d="M-178.5,216.5h-74c-2.8,0-5-2.2-5-5v-9c0-2.8,2.2-5,5-5h74c2.8,0,5,2.2,5,5v9
	C-173.5,214.3-175.7,216.5-178.5,216.5z"/>
<path class="st0" d="M-178.5,340.5h-74c-2.8,0-5-2.2-5-5v-9c0-2.8,2.2-5,5-5h74c2.8,0,5,2.2,5,5v9
	C-173.5,338.3-175.7,340.5-178.5,340.5z"/>
<path class="st0" d="M-245,216.5l0.5,24.3c0,1.7,0.2,3.4,0.6,5c1.6,6.6,7.1,20.7,26,22.5c3,0.3,6,0,8.8-0.7
	c16-4.2,21.3-15.9,22.9-21.7c0.5-1.7,0.7-3.5,0.7-5.3v-24.1"/>
<path class="st0" d="M-244.1,321l0.5-24.3c0-1.7,0.2-3.4,0.6-5c1.6-6.6,7.1-20.7,26-22.5c3-0.3,6,0,8.8,0.7
	c16,4.2,21.3,15.9,22.9,21.7c0.5,1.7,0.7,3.5,0.7,5.3V321"/>
<g>
	<path class="st1" d="M237.6,482.9c-3.7-6.6-10.7-10.7-18.2-10.7l-55.7-0.1c4-20.8,13.4-57.9,34.3-99.2
		c42.4-83.7,109.7-144.3,199.9-180.1c32.4-12.9,66.6-19.7,101.5-20.4c118.7-2.4,219.7,46.4,300.4,145.1l1.1,1.4l24.8-20.3l-1.1-1.4
		c-14.2-17.4-47.4-58-100.8-93.2c-66.6-43.9-142.3-65.3-225-63.7c-38.8,0.8-76.7,8.4-112.7,22.7c-53.9,21.4-101.1,51.7-140,90
		c-31.2,30.7-57.2,66.6-77.3,106.6c-24.3,48.5-34.1,91-37.7,112.4l-60.4-0.1c0,0,0,0,0,0c-7.5,0-14.5,4.1-18.2,10.6
		c-3.7,6.6-3.6,14.6,0.3,21.1l74.1,122.8c3.8,6.3,10.5,10.1,17.9,10.1c0,0,0,0,0.1,0c7.4,0,14-3.7,17.9-10L237.3,504
		C241.2,497.6,241.3,489.5,237.6,482.9z M144.8,594.3l-54.5-90.3l109.3,0.2L144.8,594.3z"/>
	<path class="st1" d="M978.5,573.8l-71.1-117.9c-4.1-6.8-11.3-10.9-19.3-10.9c0,0,0,0-0.1,0c-8,0-15.2,4.1-19.3,10.8l-71.6,117.6
		c-4.2,7-4.4,15.7-0.4,22.8c4,7.1,11.5,11.5,19.7,11.6l52.7,0.1c-4,20.8-13.4,57.9-34.3,99.2c-42.4,83.7-109.7,144.3-199.9,180.1
		c-32.4,12.9-66.6,19.7-101.5,20.4C414.6,910,313.6,861.2,233,762.5l-1.1-1.4l-24.8,20.3l1.1,1.4c14.2,17.4,47.4,58,100.8,93.2
		c64.2,42.3,136.9,63.7,216.1,63.7c3,0,5.9,0,8.9-0.1c38.8-0.8,76.7-8.4,112.7-22.7c53.9-21.4,101.1-51.7,140-90
		c31.2-30.7,57.2-66.6,77.3-106.6c24.3-48.5,34.1-91,37.7-112.4l57.4,0.1c0,0,0,0,0,0c8.1,0,15.7-4.4,19.7-11.5
		C982.8,589.5,982.7,580.8,978.5,573.8z M833.2,575.8l54.9-90.1l54.5,90.3L833.2,575.8z"/>
	<path class="st1" d="M629.8,468.6c2-7,3-14.3,3-21.9v-62.9h18.2c11.6,0,21-9.4,21-21v-52.3c0-11.6-9.4-21-21-21H385.4
		c-11.6,0-21,9.4-21,21v52.3c0,11.6,9.4,21,21,21h20.2l1.3,64c0.1,6.9,1,13.6,2.5,19.9c4.2,17.5,16.8,52.6,52.7,72.4
		c-33.6,20.1-45.6,53.6-49.6,70.6c-1.5,6.3-2.3,13-2.5,19.9l-1.3,65.6h-23.3c-11.6,0-21,9.4-21,21v52.3c0,11.6,9.4,21,21,21h265.5
		c11.6,0,21-9.4,21-21v-52.3c0-11.6-9.4-21-21-21h-15.1v-64.6c0-7.6-1-14.9-3-21.9c-4.6-16-18.7-50.7-58.3-71.4
		C611.8,517.5,625.3,484.2,629.8,468.6z M396.4,321.5h243.6v30.3H396.4V321.5z M639.9,758.6H396.4v-30.3h243.6V758.6z M602.1,618.6
		c1.2,4.1,1.8,8.5,1.8,13.1v64.6H440.7l1.3-65c0.1-4.7,0.6-9.1,1.6-13.1c5-21,20.9-56.8,71.2-61.6c7.8-0.7,15.6-0.1,23.3,2
		C582.1,570.1,597.1,601.1,602.1,618.6z M535,520c-7.7,2-15.6,2.7-23.3,2c-50.3-4.8-66.2-40.7-71.2-61.6c-1-4.1-1.5-8.5-1.6-13.1
		l-1.3-63.3h163.1v62.9c0,4.6-0.6,9-1.8,13.1C594,477.3,579,508.3,535,520z"/>
</g>
</svg>
